<svg height="512" viewBox="0 0 64 64" width="512" xmlns="http://www.w3.org/2000/svg"><g id="_24_Hr" data-name="24 Hr"><g fill="#9bc9ff"><path d="m46.422 54h-24.844a4.95 4.95 0 0 1 0 4h24.844a4.95 4.95 0 0 1 0-4z"/><path d="m12.422 54h-7.422v2a2 2 0 0 0 2 2h5.422a4.95 4.95 0 0 1 0-4z"/><path d="m59 54h-3.422a4.95 4.95 0 0 1 0 4h3.422a2 2 0 0 0 2-2v-2z"/><path d="m46.422 54a4.993 4.993 0 0 1 9.156 0h3.422v-9h-10a2 2 0 0 1 -2-2v-9h-4v20z"/><path d="m35 26a12 12 0 0 1 -24 0h-8v22h40v-22z"/></g><path d="m61 53h-1v-11a9.01 9.01 0 0 0 -9-9h-7v-7a1 1 0 0 0 -1-1h-5a1 1 0 0 0 0 2h4v20h-38v-20h4a1 1 0 0 0 0-2h-5a1 1 0 0 0 -1 1v28a1 1 0 0 0 1 1h1v1a3 3 0 0 0 3 3h4.812a5.986 5.986 0 0 0 10.376 0h23.624a5.986 5.986 0 0 0 10.376 0h2.812a3 3 0 0 0 3-3v-2a1 1 0 0 0 -1-1zm-3-11v2h-9a1 1 0 0 1 -1-1v-8h3a7.008 7.008 0 0 1 7 7zm-12-7v8a3 3 0 0 0 3 3h9v7h-1.812a5.986 5.986 0 0 0 -10.376 0h-1.812v-18zm-4 14v4h-19.812a5.986 5.986 0 0 0 -10.376 0h-7.812v-4zm-35 8a1 1 0 0 1 -1-1v-1h5.09a5.6 5.6 0 0 0 0 2zm10 3a4 4 0 1 1 4-4 4 4 0 0 1 -4 4zm5.91-3a5.6 5.6 0 0 0 0-2h22.18a5.6 5.6 0 0 0 0 2zm28.09 3a4 4 0 1 1 4-4 4 4 0 0 1 -4 4zm9-4a1 1 0 0 1 -1 1h-2.09a5.6 5.6 0 0 0 0-2h3.09z" fill="#1e81ce"/><path d="m19.447 26.658-1.789.895a2.984 2.984 0 0 0 -1.658 2.683v.764a1 1 0 0 0 1 1h4a1 1 0 0 0 0-2h-2.973a1 1 0 0 1 .526-.658l1.789-.895a2.984 2.984 0 0 0 1.658-2.683v-.764a3 3 0 0 0 -6 0 1 1 0 0 0 2 0 1 1 0 0 1 2 0v.764a.994.994 0 0 1 -.553.894z" fill="#1e81ce"/><path d="m28.341 22.06a1 1 0 0 0 -1.11.3l-5 6a1 1 0 0 0 .769 1.64h4v1a1 1 0 0 0 2 0v-1h1a1 1 0 0 0 0-2h-1v-5a1 1 0 0 0 -.659-.94zm-1.341 5.94h-1.865l1.865-2.238z" fill="#1e81ce"/><path d="m16.5 37.258a13 13 0 1 0 -3.061-20.058l-.127-2.093a1 1 0 1 0 -2 .121l.294 4.83c0 .029.02.053.024.081a.992.992 0 0 0 .071.246 1.164 1.164 0 0 0 .069.142.973.973 0 0 0 .171.192c.03.028.046.066.079.09.016.011.036.015.052.026s.019.021.032.028.049.013.072.024a1.029 1.029 0 0 0 .24.081.912.912 0 0 0 .115.017c.025 0 .048.012.073.012a.99.99 0 0 0 .259-.034l4.83-1.294a1 1 0 0 0 -.517-1.932l-1.991.533a10.971 10.971 0 1 1 -3 5.679 1 1 0 1 0 -1.964-.372 13.013 13.013 0 0 0 6.279 13.681z" fill="#1e81ce"/></g></svg>