<svg height="512" viewBox="0 0 64 64" width="512" xmlns="http://www.w3.org/2000/svg"><g id="Mail"><g fill="#9bc9ff"><path d="m48.67 35a6.335 6.335 0 0 1 .2-5.46 1.961 1.961 0 0 0 -.37-2.29l-4.1-4.1a3.005 3.005 0 0 1 4.25-4.25l6.35 6.35v-20.25a2 2 0 0 0 -2-2h-42a2 2 0 0 0 -2 2v20.25l6.35-6.35a3.005 3.005 0 1 1 4.25 4.25l-4.1 4.1a1.961 1.961 0 0 0 -.37 2.29 6.335 6.335 0 0 1 .2 5.46zm-14.05-14.28a3.985 3.985 0 0 1 -5.24 0l-19.75-17.17 19.75 17.17a3.985 3.985 0 0 0 5.24 0l19.75-17.17z"/><path d="m3 47v8h2 16 2v-8h-2-16z"/><path d="m41 47v8h2 16 2v-8h-2-16z"/><path d="m43 55h16v6h-16z"/><path d="m5 55h16v6h-16z"/></g><path d="m60.293 44.121.243-.243a4.966 4.966 0 0 0 1.464-3.535v-15.6a8.976 8.976 0 0 0 -3.238-6.914l-2.762-2.297v-10.532a3 3 0 0 0 -3-3h-42a3 3 0 0 0 -3 3v10.532l-2.762 2.3a8.976 8.976 0 0 0 -3.238 6.915v15.6a4.966 4.966 0 0 0 1.464 3.535l.243.243a1 1 0 0 1 .293.704v1.171h-1a1 1 0 0 0 -1 1v8a1 1 0 0 0 1 1h1v5a1 1 0 0 0 1 1h16a1 1 0 0 0 1-1v-5h1a1 1 0 0 0 1-1v-8a1 1 0 0 0 -1-1h-1v-1.446a.991.991 0 0 1 .143-.514l.455-.76a8.938 8.938 0 0 0 .87-7.28h17.064a8.938 8.938 0 0 0 .87 7.28l.455.759a1 1 0 0 1 .143.515v1.446h-1a1 1 0 0 0 -1 1v8a1 1 0 0 0 1 1h1v5a1 1 0 0 0 1 1h16a1 1 0 0 0 1-1v-5h1a1 1 0 0 0 1-1v-8a1 1 0 0 0 -1-1h-1v-1.171a1 1 0 0 1 .293-.708zm-10.942-25.934a4.1 4.1 0 0 0 -5.661.009 4.03 4.03 0 0 0 0 5.661l4.1 4.1a.963.963 0 0 1 .192 1.117 7.268 7.268 0 0 0 -.668 4.926h-30.627a7.273 7.273 0 0 0 -.672-4.925.964.964 0 0 1 .192-1.118l4.1-4.1a4.032 4.032 0 0 0 -.009-5.667 4.1 4.1 0 0 0 -5.658.006l-4.64 4.64v-17.636l18.722 16.274a5 5 0 0 0 6.554 0l18.724-16.274v17.636zm-37.679-14.187h40.656l-18.366 15.967a3 3 0 0 1 -3.926 0zm8.328 56h-14v-4h14zm2-6h-18v-6h18zm-1.117-11.749-.455.76a3 3 0 0 0 -.428 1.543v1.446h-14v-1.171a2.978 2.978 0 0 0 -.879-2.122l-.243-.243a3.02 3.02 0 0 1 -.878-2.121v-15.6a6.983 6.983 0 0 1 2.519-5.378l1.481-1.23v6.7l-.427.427a1 1 0 0 0 1.414 1.414l7.064-7.064a2.071 2.071 0 0 1 2.839-.012 2.023 2.023 0 0 1 0 2.839l-4.1 4.1a2.942 2.942 0 0 0 -.548 3.463 5.3 5.3 0 0 1 .17 4.591 5.074 5.074 0 0 1 -.722 1.193l-.47.58a1 1 0 0 0 1.554 1.26l.467-.577a6.935 6.935 0 0 0 .694-1.049h5.41a6.951 6.951 0 0 1 -.462 6.251zm37.117 17.749h-14v-4h14zm2-6h-18v-6h18zm-16-8v-1.446a3 3 0 0 0 -.428-1.544l-.455-.759a6.951 6.951 0 0 1 -.462-6.251h5.41a6.891 6.891 0 0 0 .688 1.05l.47.58a1 1 0 1 0 1.554-1.26l-.473-.583a5.071 5.071 0 0 1 -.716-1.183 5.307 5.307 0 0 1 .167-4.6 2.941 2.941 0 0 0 -.548-3.462l-4.1-4.1a2.021 2.021 0 0 1 -.009-2.833 2.069 2.069 0 0 1 2.842-.006l7.07 7.07a1 1 0 0 0 1.414-1.414l-.424-.423v-6.7l1.481 1.234a6.983 6.983 0 0 1 2.519 5.377v15.6a3.02 3.02 0 0 1 -.878 2.121l-.243.243a2.978 2.978 0 0 0 -.879 2.118v1.171z" fill="#1e81ce"/></g></svg>